<svg width="180" height="120" viewBox="0 0 180 120" xmlns="http://www.w3.org/2000/svg" role="img" aria-hidden="true">
  <path d="M18 88c10-26 36-56 70-68 7-3 16-5 24-3 10 2 18 9 22 18 1 3 2 6 2 9-1 2-3 3-5 4-18 7-37 17-56 30-15 11-37 14-57 10z" fill="#e11d48"/>
  <path d="M130 38c3 0 6 1 8 3 2 2 4 5 5 8-12 2-25 8-38 16-12 8-23 16-33 25-12 10-32 13-47 8l-3-1c1-3 2-7 4-10 15 4 31 1 42-8 12-9 25-18 39-25 8-4 15-7 23-9z" fill="#be123c"/>
  <path d="M18 88c44 11 93 5 124-3 7-2 12 5 8 12-2 4-7 6-11 7-35 7-78 8-119-3-6-2-9-7-7-12 1-4 4-5 8-3z" fill="#f8fafc"/>
  <circle cx="124" cy="24" r="16" fill="#f8fafc"/>
  <path d="M20 90c43 10 90 6 126-2-1 6-5 11-12 12-35 7-78 8-119-3-3-1-5-4-5-7 0-3 3-4 6-2z" fill="#e2e8f0"/>
</svg>
